<svg xmlns="http://www.w3.org/2000/svg" xmlns:xlink="http://www.w3.org/1999/xlink" width="66.506" height="72" viewBox="0 0 66.506 72">
  <defs>
    <clipPath id="clip-path">
      <rect id="Retângulo_52" data-name="Retângulo 52" width="66.506" height="72" fill="none"/>
    </clipPath>
  </defs>
  <g id="acesso-exclusivo" clip-path="url(#clip-path)">
    <path id="Caminho_77" data-name="Caminho 77" d="M55.27,65.648H31.239a2.374,2.374,0,0,1-2.374-2.375V6.537a2.374,2.374,0,0,1,2.374-2.376H71.152a2.375,2.375,0,0,1,2.375,2.376V40.164" transform="translate(-18.865 -2.72)" fill="#fff"/>
    <path id="Caminho_78" data-name="Caminho 78" d="M52.551,64.371H28.52A3.82,3.82,0,0,1,24.7,60.555V3.819A3.821,3.821,0,0,1,28.52,0H68.433a3.821,3.821,0,0,1,3.816,3.818V37.446H69.366V3.819a.935.935,0,0,0-.933-.935H28.52a.934.934,0,0,0-.933.935V60.555a.934.934,0,0,0,.933.934H52.551Z" transform="translate(-16.147 -0.001)" fill="#2e2e2d"/>
    <rect id="Retângulo_46" data-name="Retângulo 46" width="37.872" height="49.321" transform="translate(13.394 8.435)" fill="#18a6ac"/>
    <line id="Linha_3" data-name="Linha 3" x1="3.591" transform="translate(30.534 5.505)" fill="#fff"/>
    <rect id="Retângulo_47" data-name="Retângulo 47" width="3.591" height="2.883" transform="translate(30.534 4.063)" fill="#2e2e2d"/>
    <path id="Caminho_79" data-name="Caminho 79" d="M130.653,120.9v-3.651a7.541,7.541,0,0,0,3.042-6.054V98.061l-.141-2.9a2.813,2.813,0,0,0-2.813-2.814c-1.554,0-2.814.557-2.814,2.11v-.7a2.813,2.813,0,1,0-5.626,0V92.347a2.813,2.813,0,0,0-5.626,0V93.93c0-3.809-.025-16.208-.025-16.208a2.91,2.91,0,0,0-5.821,0l-.016,28.435-.058-1.385V98.959a4.3,4.3,0,0,0-4.3-4.3h-1.431c-.062,0,.059,0,0,.009v5.379c.008,0-.011,0,0,0v7.137l8.147,9.683a15.853,15.853,0,0,0,3.411,1.656V120.9" transform="translate(-68.63 -48.895)" fill="#fff"/>
    <path id="Caminho_80" data-name="Caminho 80" d="M129.245,118.175h-2.883V113.8l.578-.432a6.071,6.071,0,0,0,2.463-4.9V95.376l-.141-2.935a1.374,1.374,0,0,0-1.372-1.373c-1.368,0-1.373.432-1.373.666v0h-2.883v-.7a1.372,1.372,0,1,0-2.743,0h-2.883V89.627a1.372,1.372,0,0,0-2.743,0V91.21h-2.883c0-3.809-.026-16.2-.026-16.2a1.469,1.469,0,1,0-2.938,0l-.016,28.435-2.881.06-.06-1.445V96.238a2.859,2.859,0,0,0-2.847-2.856v3.826l.171,1.131-.171.053v5.553l7.661,9.106a13.178,13.178,0,0,0,2.8,1.358l1.1.268v3.5h-2.883v-1.343a21.179,21.179,0,0,1-2.741-1.46l-.188-.119L100.735,105V97.436l-.087-1.14.087-.027v-3.04l-.078-.009.078-1.639V90.6l.056,0,.006-.1h2.811a5.7,5.7,0,0,1,2.922.8l.009-16.3a4.352,4.352,0,0,1,8.7,0s.012,5.733.019,10.6a4.252,4.252,0,0,1,4.945,1.709,4.249,4.249,0,0,1,5.523,1.255,5.617,5.617,0,0,1,2.163-.381,4.26,4.26,0,0,1,4.254,4.217l.141,2.939v13.129a8.912,8.912,0,0,1-3.042,6.739Z" transform="translate(-65.781 -46.175)" fill="#2e2e2d"/>
    <path id="Caminho_81" data-name="Caminho 81" d="M14.381,98.982l.033-.071,9.566.144c0,.068.011.132.009.2l-.025,1.592a4.778,4.778,0,0,1-4.854,4.7l-1.047-.033-1.479,4.44c3,2.216,5.036,6.446,5.036,11.3a15.065,15.065,0,0,1-3.116,9.452H10.145v-22.14Z" transform="translate(-6.63 -64.646)" fill="#fff"/>
    <path id="Caminho_82" data-name="Caminho 82" d="M16.471,129.4H5.986V105.517l4.793-10.808,11.855.179.068,1.349a3.061,3.061,0,0,1,.01.316l-.025,1.572a6.219,6.219,0,0,1-6.315,6.118l-.826,2.479a15.932,15.932,0,0,1,4.8,11.788A16.421,16.421,0,0,1,16.9,128.87Zm-7.6-2.883h6.2a13.993,13.993,0,0,0,2.389-8.01c0-4.231-1.7-8.117-4.45-10.141l-.843-.621,2.15-6.453,2.121.067A3.337,3.337,0,0,0,19.8,98.078l.006-.35-7.182-.108-3.759,8.505Z" transform="translate(-3.912 -61.899)" fill="#2e2e2d"/>
    <path id="Caminho_83" data-name="Caminho 83" d="M22.267,193.553v-7.57H0v7.57" transform="translate(0 -121.553)" fill="#18a6ac"/>
    <path id="Caminho_84" data-name="Caminho 84" d="M60.9,45.473H46.491V32.5H60.9ZM49.373,42.59h8.649V35.383H49.373Z" transform="translate(-30.385 -21.241)" fill="#2e2e2d"/>
    <rect id="Retângulo_48" data-name="Retângulo 48" width="21.922" height="2.883" transform="translate(15.925 27.115)" fill="#2e2e2d"/>
    <rect id="Retângulo_49" data-name="Retângulo 49" width="16.877" height="2.883" transform="translate(20.97 32.88)" fill="#2e2e2d"/>
    <rect id="Retângulo_50" data-name="Retângulo 50" width="16.877" height="2.883" transform="translate(20.97 38.646)" fill="#2e2e2d"/>
    <rect id="Retângulo_51" data-name="Retângulo 51" width="16.336" height="2.883" transform="translate(15.925 44.412)" fill="#2e2e2d"/>
  </g>
</svg>
