<svg xmlns="http://www.w3.org/2000/svg" xmlns:xlink="http://www.w3.org/1999/xlink" width="76.521" height="72" viewBox="0 0 76.521 72">
  <defs>
    <clipPath id="clip-path">
      <rect id="conteudo-especializado" width="76.521" height="72" fill="none"/>
    </clipPath>
  </defs>
  <g id="conteudo-especializado-2" data-name="conteudo-especializado" clip-path="url(#clip-path)">
    <path id="Caminho_51" data-name="Caminho 51" d="M96.119,86.2A10.214,10.214,0,1,1,85.9,75.991,10.214,10.214,0,0,1,96.119,86.2" transform="translate(-47.644 -47.833)" fill="#18a6ac"/>
    <path id="Caminho_52" data-name="Caminho 52" d="M60.211,70.417,51.9,63.38l1.992-2.354,6.149,5.2,5.283-5.282-5.777-6.827.659-.969a26.274,26.274,0,0,0,3.833-8.667L64.3,43.4l9.141-.762V35.171l-8.914-.743L64.3,33.278a26.318,26.318,0,0,0-3.415-8.845l-.581-.95,5.923-7L60.949,11.2l-6.826,5.777-.969-.659a26.3,26.3,0,0,0-8.668-3.834l-1.083-.26-.764-9.141H35.171L34.428,12l-1.151.219a26.266,26.266,0,0,0-8.843,3.413l-.95.582-7-5.925L11.2,15.573,16.979,22.4l-.659.969a26.277,26.277,0,0,0-3.834,8.667l-.26,1.084-9.14.762,0,7.469L12,42.093l.219,1.151a26.251,26.251,0,0,0,3.413,8.842l.582.95-5.923,7,5.281,5.282,5.933-5.02L23.5,62.653l-8.1,6.853-9.294-9.3,6.331-7.481a29.267,29.267,0,0,1-3-7.757L0,44.187,0,31.045l9.767-.815a29.277,29.277,0,0,1,3.357-7.608L7.015,15.4l9.3-9.295,7.48,6.331a29.3,29.3,0,0,1,7.757-3L32.334,0H45.476l.816,9.77A29.318,29.318,0,0,1,53.9,13.127l7.222-6.112,9.295,9.295-6.331,7.481a29.345,29.345,0,0,1,3,7.757l9.432.785V45.476l-9.769.814A29.313,29.313,0,0,1,63.4,53.9l6.112,7.223Z" transform="translate(0 -0.001)" fill="#2e2e2d"/>
    <path id="Caminho_53" data-name="Caminho 53" d="M46.186,100.981H43.1c0-.554.02-1.111.061-1.655l3.075.227c-.035.469-.052.95-.052,1.428" transform="translate(-27.131 -62.522)" fill="#18a6ac"/>
    <path id="Caminho_54" data-name="Caminho 54" d="M47.515,61.886,44.5,61.223a22.174,22.174,0,0,1,.9-3.043l2.885,1.087a19.056,19.056,0,0,0-.777,2.62m37.511-.029a19.048,19.048,0,0,0-.781-2.617l2.884-1.091a22.153,22.153,0,0,1,.907,3.041Zm-35.59-5.073-2.7-1.488a22.522,22.522,0,0,1,1.723-2.662l2.464,1.854a19.435,19.435,0,0,0-1.486,2.3M83.1,56.762a19.256,19.256,0,0,0-1.488-2.291l2.461-1.859a22.39,22.39,0,0,1,1.726,2.66Zm-30.38-4.336-2.178-2.183a22.609,22.609,0,0,1,2.4-2.074l1.849,2.468a19.415,19.415,0,0,0-2.068,1.79m27.094-.016a19.415,19.415,0,0,0-2.069-1.787l1.845-2.471a22.485,22.485,0,0,1,2.4,2.072ZM57.086,49.157l-1.481-2.7a22.314,22.314,0,0,1,2.884-1.32l1.079,2.888a19.125,19.125,0,0,0-2.483,1.136m18.357-.011a19.233,19.233,0,0,0-2.487-1.135l1.076-2.89a22.34,22.34,0,0,1,2.888,1.318Zm-13.254-1.9-.655-3.013a22.192,22.192,0,0,1,3.14-.451l.219,3.076a19.282,19.282,0,0,0-2.7.388m8.144-.006a19.223,19.223,0,0,0-2.7-.384l.215-3.076a22.294,22.294,0,0,1,3.141.446Z" transform="translate(-28.013 -27.56)" fill="#18a6ac"/>
    <path id="Caminho_55" data-name="Caminho 55" d="M158.085,100.981H155c0-.478-.017-.959-.052-1.428l3.075-.227c.04.544.061,1.1.061,1.655" transform="translate(-97.534 -62.522)" fill="#18a6ac"/>
    <path id="Caminho_56" data-name="Caminho 56" d="M74.3,60.149A13.971,13.971,0,0,1,88.263,74.082c0,.071-.233,7.173-6.182,14.836l-.014.018-.014.018a10.383,10.383,0,0,0-1.722,3.935H68.26a10.3,10.3,0,0,0-1.7-3.93l-.016-.021-.016-.021c-5.954-7.663-6.179-14.762-6.18-14.809A13.975,13.975,0,0,1,74.3,60.149m0-3.084A17.038,17.038,0,0,0,57.259,74.108c0,.557.4,8.428,6.829,16.7a10.216,10.216,0,0,1,1.5,5.164h17.4a10.3,10.3,0,0,1,1.527-5.164c6.419-8.268,6.831-16.144,6.831-16.7A17.039,17.039,0,0,0,74.3,57.065" transform="translate(-36.042 -35.92)" fill="#2e2e2d"/>
    <rect id="Retângulo_27" data-name="Retângulo 27" width="3.083" height="18.836" transform="matrix(0.994, -0.105, 0.105, 0.994, 32.098, 41.436)" fill="#2e2e2d"/>
    <rect id="Retângulo_28" data-name="Retângulo 28" width="18.836" height="3.083" transform="translate(39.382 59.845) rotate(-83.978)" fill="#2e2e2d"/>
    <rect id="Retângulo_29" data-name="Retângulo 29" width="22.164" height="3.084" transform="translate(27.179 58.712)" fill="#2e2e2d"/>
    <rect id="Retângulo_30" data-name="Retângulo 30" width="22.164" height="3.084" transform="translate(27.179 63.814)" fill="#2e2e2d"/>
    <rect id="Retângulo_31" data-name="Retângulo 31" width="14.494" height="3.084" transform="translate(31.014 68.916)" fill="#2e2e2d"/>
    <rect id="Retângulo_32" data-name="Retângulo 32" width="3.084" height="5.317" transform="translate(29.006 60.484)" fill="#2e2e2d"/>
  </g>
</svg>
